<svg width="346" height="322" viewBox="0 0 346 322" fill="none" xmlns="http://www.w3.org/2000/svg">
<path d="M240.605 73.7586L241.919 72.4774L278.759 65.0879L271.672 103.516L270.358 104.797L240.605 73.7586Z" fill="black"/>
<rect width="41.6217" height="111.184" transform="matrix(-0.708534 0.705677 -0.717238 -0.696828 184.937 171.599)" fill="#060000"/>
<rect x="234.336" y="101.554" width="37.7703" height="192.374" fill="black"/>
<path d="M1 159.349L63.1111 186.87V226.501L1 251.821V159.349Z" fill="black" stroke="black"/>
<rect width="41.6216" height="152.423" transform="matrix(-0.70848 -0.705731 0.717291 -0.696773 162.264 208.361)" fill="#060000"/>
<rect width="41.6216" height="152.339" transform="matrix(-0.70848 -0.705731 0.717291 -0.696773 162.264 207.93)" fill="#060000"/>
<rect width="14.9856" height="4.99503" rx="2" transform="matrix(0.713614 -0.700539 0.712186 0.701991 139.628 182.684)" fill="white"/>
<rect width="14.9856" height="4.99503" rx="2" transform="matrix(0.713614 -0.700539 0.712186 0.701991 152.732 169.548)" fill="white"/>
<rect width="14.9856" height="4.99503" rx="2" transform="matrix(0.713614 -0.700539 0.712186 0.701991 165.836 156.411)" fill="white"/>
<rect width="14.9856" height="4.99503" rx="2" transform="matrix(0.713614 -0.700539 0.712186 0.701991 178.94 143.275)" fill="white"/>
<rect width="14.9856" height="4.99503" rx="2" transform="matrix(0.713614 -0.700539 0.712186 0.701991 192.044 130.139)" fill="white"/>
<rect width="14.9856" height="4.99503" rx="2" transform="matrix(0.713614 -0.700539 0.712186 0.701991 206.221 116.103)" fill="white"/>
<rect width="14.9856" height="4.99503" rx="2" transform="matrix(0.713614 -0.700539 0.712186 0.701991 219.651 102.892)" fill="white"/>
<rect width="14.9856" height="4.99503" rx="2" transform="matrix(0.713614 -0.700539 0.712186 0.701991 233.08 90.5078)" fill="white"/>
<rect width="11.2413" height="5.09609" rx="2" transform="matrix(0.713614 -0.700539 0.712186 0.701991 247.349 77.2975)" fill="white"/>
<rect width="14.8799" height="4.99503" rx="2" transform="matrix(0.713614 -0.700539 0.712186 0.701991 155.075 198.715)" fill="white"/>
<rect width="14.8799" height="4.99503" rx="2" transform="matrix(0.713614 -0.700539 0.712186 0.701991 168.086 185.67)" fill="white"/>
<rect width="14.8799" height="4.99503" rx="2" transform="matrix(0.713614 -0.700539 0.712186 0.701991 181.096 172.625)" fill="white"/>
<rect width="14.8799" height="4.99503" rx="2" transform="matrix(0.713614 -0.700539 0.712186 0.701991 194.107 159.58)" fill="white"/>
<rect width="14.8799" height="4.99503" rx="2" transform="matrix(0.713614 -0.700539 0.712186 0.701991 207.117 146.536)" fill="white"/>
<rect width="14.8799" height="4.99503" rx="2" transform="matrix(0.713614 -0.700539 0.712186 0.701991 221.194 132.598)" fill="white"/>
<rect width="14.8799" height="4.99503" rx="2" transform="matrix(0.713614 -0.700539 0.712186 0.701991 235.271 118.661)" fill="white"/>
<rect width="14.8799" height="4.99503" rx="2" transform="matrix(0.713614 -0.700539 0.712186 0.701991 247.86 105.541)" fill="white"/>
<rect width="14.8799" height="4.99503" rx="2" transform="matrix(0.713614 -0.700539 0.712186 0.701991 261.195 92.4239)" fill="white"/>
<path fill-rule="evenodd" clip-rule="evenodd" d="M105.078 94.123H63.1111V322L67.3078 317.129V315.569C67.3078 315.017 67.7556 314.569 68.3078 314.569H69.5129L75.9146 307.138H68.3078C67.7556 307.138 67.3078 306.691 67.3078 306.138V303.185C67.3078 302.632 67.7556 302.185 68.3078 302.185H80.1825L86.5842 294.754H68.3078C67.7556 294.754 67.3078 294.306 67.3078 293.754V290.8C67.3078 290.248 67.7556 289.8 68.3078 289.8H90.852L97.2538 282.369H68.3078C67.7556 282.369 67.3078 281.922 67.3078 281.369V278.415C67.3078 277.863 67.7556 277.415 68.3078 277.415H99.8814C100.356 277.415 100.753 277.745 100.856 278.188L105.078 273.287L105.078 94.123ZM68.3078 240.262C67.7556 240.262 67.3078 240.709 67.3078 241.262V244.215C67.3078 244.768 67.7556 245.215 68.3078 245.215H99.8814C100.434 245.215 100.881 244.768 100.881 244.215V241.262C100.881 240.709 100.434 240.262 99.8814 240.262H68.3078ZM67.3078 253.646C67.3078 253.094 67.7556 252.646 68.3078 252.646H99.8814C100.434 252.646 100.881 253.094 100.881 253.646V256.6C100.881 257.152 100.434 257.6 99.8814 257.6H68.3078C67.7556 257.6 67.3078 257.152 67.3078 256.6V253.646ZM68.3078 265.031C67.7556 265.031 67.3078 265.478 67.3078 266.031V268.985C67.3078 269.537 67.7556 269.985 68.3078 269.985H99.8814C100.434 269.985 100.881 269.537 100.881 268.985V266.031C100.881 265.478 100.434 265.031 99.8814 265.031H68.3078ZM68.3078 227.877C67.7556 227.877 67.3078 228.325 67.3078 228.877V231.831C67.3078 232.383 67.7556 232.831 68.3078 232.831H99.8814C100.434 232.831 100.881 232.383 100.881 231.831V228.877C100.881 228.325 100.434 227.877 99.8814 227.877H68.3078Z" fill="#00BF63"/>
<path d="M272.01 219.399V224.57C266.409 224.57 262.531 225.68 260.376 227.901C258.255 230.121 257.195 233.999 257.195 239.534V258.824C257.195 263.066 256.78 266.745 255.952 269.861C255.123 273.009 253.797 275.595 251.974 277.616C250.152 279.671 247.749 281.196 244.766 282.19C241.816 283.185 238.203 283.682 233.928 283.682V276.125C237.64 276.125 240.589 275.512 242.777 274.286C244.998 273.059 246.572 271.17 247.5 268.618C248.461 266.099 248.942 262.834 248.942 258.824V236.899C248.942 234.082 249.273 231.596 249.936 229.442C250.599 227.254 251.776 225.415 253.466 223.923C255.156 222.432 257.493 221.305 260.476 220.543C263.492 219.78 267.337 219.399 272.01 219.399ZM233.928 156.409C238.203 156.409 241.816 156.906 244.766 157.901C247.749 158.895 250.152 160.42 251.974 162.474C253.797 164.496 255.123 167.081 255.952 170.23C256.78 173.346 257.195 177.025 257.195 181.267V200.557C257.195 206.092 258.255 209.97 260.376 212.19C262.531 214.411 266.409 215.521 272.01 215.521V220.692C267.337 220.692 263.492 220.311 260.476 219.548C257.493 218.786 255.156 217.659 253.466 216.168C251.776 214.676 250.599 212.853 249.936 210.699C249.273 208.511 248.942 206.009 248.942 203.192V181.267C248.942 177.257 248.461 173.975 247.5 171.423C246.572 168.871 244.998 166.999 242.777 165.805C240.589 164.579 237.64 163.966 233.928 163.966V156.409ZM272.01 215.521V224.57H260.625V215.521H272.01Z" fill="white"/>
<path d="M245.66 68.5232L282.554 61.4304C282.702 61.4018 282.86 61.4128 283.013 61.4624C283.166 61.512 283.308 61.5986 283.426 61.7135C283.543 61.8284 283.632 61.9677 283.684 62.1178C283.735 62.2679 283.747 62.4236 283.719 62.5695L276.21 98.3281C276.148 98.5534 276.139 98.7955 276.182 99.0381C276.225 99.2807 276.319 99.5181 276.46 99.7343C276.585 99.9473 276.752 100.137 276.951 100.291C277.149 100.444 277.373 100.558 277.608 100.624C280.028 101.289 282.496 101.053 284.516 99.9636C286.535 98.8743 287.956 97.0128 288.491 94.754L297.537 54.2204C297.569 54.081 297.638 53.9565 297.737 53.8583C297.836 53.7602 297.962 53.6916 298.104 53.6588L307.374 51.4662C307.132 54.426 307.779 57.5038 309.237 60.3323C310.695 63.1607 312.902 65.6202 315.596 67.4172C318.289 69.2142 321.354 70.2727 324.426 70.4665C327.498 70.6602 330.446 69.981 332.919 68.5098C335.391 67.0387 337.284 64.8378 338.371 62.1699C339.458 59.502 339.693 56.4798 339.048 53.4641C338.403 50.4483 336.905 47.5665 334.734 45.1625C332.563 42.7585 329.809 40.934 326.803 39.9068C326.15 39.6982 325.474 39.6657 324.851 39.8128L301.094 45.47C300.943 45.5062 300.778 45.4996 300.618 45.4511C300.459 45.4026 300.31 45.3139 300.188 45.1944C300.066 45.0749 299.974 44.9291 299.924 44.7725C299.874 44.6158 299.866 44.4541 299.902 44.3044L305.494 20.8985C305.619 20.2323 305.534 19.5183 305.25 18.8468C304.058 15.5371 301.854 12.556 298.966 10.3446C296.077 8.13319 292.656 6.80902 289.21 6.56803C286.562 6.36588 283.994 6.83381 281.751 7.92706C278.475 9.42071 276.006 12.0943 274.789 15.4668C273.571 18.8394 273.686 22.6895 275.112 26.3245C276.538 29.9596 279.182 33.1409 282.568 35.2963C285.953 37.4517 289.859 38.4396 293.581 38.0823L291.597 47.3011C291.572 47.4441 291.505 47.5723 291.405 47.6714C291.305 47.7705 291.175 47.8367 291.03 47.8627L249.36 56.3784C247.86 56.6977 246.525 57.4131 245.488 58.4527C244.395 59.5142 243.634 60.869 243.276 62.3898C242.919 63.9106 242.975 65.5473 243.442 67.1461C243.596 67.5913 243.912 67.983 244.325 68.2395C244.739 68.4961 245.217 68.5976 245.66 68.5232ZM315.555 49.6047L326.285 46.9794C327.575 47.5699 328.742 48.4371 329.691 49.5098C330.64 50.5824 331.343 51.8297 331.743 53.149C332.233 54.627 332.331 56.1559 332.027 57.5811C331.723 59.0064 331.027 60.2773 330.01 61.2654C328.588 62.7245 326.588 63.5333 324.403 63.5334C322.217 63.5335 320.003 62.725 318.195 61.2661C316.386 59.8072 315.113 57.803 314.625 55.646C314.137 53.4891 314.468 51.3346 315.555 49.6047ZM283.651 15.9665C284.649 14.9598 285.936 14.267 287.383 13.9582C288.83 13.6494 290.385 13.7356 291.89 14.2079C293.239 14.5971 294.517 15.285 295.618 16.2155C296.719 17.146 297.613 18.2926 298.226 19.5617L295.602 30.1077C293.86 31.1805 291.687 31.5225 289.504 31.0674C287.32 30.6122 285.282 29.3923 283.783 27.6439C282.283 25.8955 281.43 23.7429 281.389 21.603C281.347 19.463 282.119 17.488 283.557 16.0601L283.651 15.9665Z" fill="#00BF63"/>
</svg>
